<svg width="132" height="54" viewBox="0 0 132 54" fill="none" xmlns="http://www.w3.org/2000/svg">
<path d="M22.459 41.002C25.2284 40.4548 27.1779 43.4469 29.2373 46.6101C30.6267 48.73 32.5263 51.6453 33.8259 51.3804C35.1256 51.124 35.3354 47.7982 35.4956 45.3706C35.7255 41.746 35.9356 38.3264 38.6948 37.7793C41.454 37.2321 43.4137 40.2242 45.483 43.3874C46.8724 45.5076 48.772 48.4226 50.0716 48.1577C51.3615 47.9013 51.5713 44.5756 51.7212 42.148C51.9511 38.5318 52.1613 35.1122 54.9205 34.5651C57.6797 34.0094 59.639 37.0016 61.7086 40.1648C63.0984 42.2935 65.0177 45.2084 66.2874 44.9435C67.5871 44.6871 67.7969 41.3614 67.9469 38.9338C68.1767 35.3091 68.3869 31.8896 71.1461 31.3424C73.9053 30.7953 75.8647 33.7874 77.9342 36.9506C79.3138 39.0708 81.2133 41.9772 82.513 41.7293C83.8127 41.4644 84.0127 38.139 84.1725 35.7111C84.2126 35.0014 84.2626 34.3006 84.3224 33.6252V42.7383C83.9626 43.0545 83.5128 43.2769 82.9629 43.3881C80.2037 43.9438 78.2542 40.9516 76.1846 37.7799C74.7948 35.6601 72.8956 32.7448 71.596 33.0097C70.3061 33.2661 70.0963 36.5915 69.9463 39.0194C69.7165 42.6441 69.5063 46.0636 66.7471 46.6108C63.9879 47.1494 62.0286 44.1658 59.959 41.0026C58.5692 38.8827 56.6799 35.9675 55.3802 36.2239C54.0805 36.4803 53.8707 39.8145 53.7207 42.2421C53.4909 45.8583 53.2807 49.2778 50.5215 49.825C47.7623 50.3721 45.8026 47.3885 43.7334 44.2168C42.3538 42.0966 40.4543 39.1901 39.1546 39.4465C37.8549 39.7029 37.6451 43.0287 37.4849 45.4563C37.2649 49.081 37.0449 52.5005 34.2857 53.0477C31.5163 53.5948 29.5668 50.6027 27.4976 47.4395C26.1081 45.3193 24.2086 42.4128 22.9089 42.6692L22.459 41.002Z" fill="white"/>
<path d="M0.417969 26.0098C3.18736 25.4627 5.1369 28.4463 7.20612 31.6095C8.58571 33.7382 10.4951 36.6446 11.7948 36.3882C13.0843 36.1318 13.2944 32.8064 13.4543 30.37C13.6841 26.7538 13.8943 23.3342 16.6633 22.7871C19.4225 22.2315 21.372 25.2236 23.4416 28.3953C24.8311 30.5152 26.7408 33.4304 28.0303 33.1655C29.3198 32.9091 29.5299 29.5838 29.6799 27.1558C29.9097 23.5312 30.1199 20.1116 32.8791 19.5644C35.6383 19.0173 37.598 22.0094 39.6672 25.1726C41.057 27.3013 42.9562 30.2162 44.246 29.9513C45.5457 29.6949 45.7555 26.3692 45.9055 23.9331C46.1354 20.317 46.3455 16.8974 49.1047 16.3503C51.8639 15.7946 53.8236 18.7867 55.8928 21.9584C57.2724 24.0786 59.1822 26.9936 60.4717 26.7287C61.7714 26.4723 61.9812 23.1466 62.1311 20.7189C62.361 17.0943 62.5712 13.6747 65.3303 13.1276C65.8601 13.0249 66.3702 13.0507 66.8398 13.1959V15.1281C66.46 14.8632 66.0999 14.735 65.7802 14.7949C64.4907 15.0513 64.2806 18.377 64.1306 20.8131C63.9008 24.4292 63.6808 27.8488 60.9216 28.3959C58.1624 28.9431 56.2129 25.9595 54.1433 22.7878C52.7535 20.6676 50.8441 17.7526 49.5645 18.0175C48.2648 18.2739 48.055 21.5997 47.905 24.0273C47.6751 27.6519 47.465 31.0715 44.7058 31.6186C41.9466 32.1658 39.9869 29.1736 37.9176 26.0105C36.538 23.8817 34.6185 20.9753 33.3388 21.2317C32.0392 21.4881 31.8293 24.8138 31.6794 27.25C31.4495 30.8661 31.2394 34.2857 28.4802 34.8328C25.7108 35.3885 23.7613 32.3878 21.692 29.2247C20.3124 27.1044 18.4129 24.198 17.1132 24.4544C15.8135 24.7108 15.6037 28.0362 15.4538 30.4642C15.2239 34.0888 15.0039 37.5083 12.2447 38.0555C9.4753 38.6026 7.52577 35.6105 5.45621 32.4474C4.06675 30.3271 2.15701 27.4122 0.867526 27.6771L0.417969 26.0098Z" fill="white"/>
<path d="M65.1541 13.2819C68.3629 12.5257 69.8195 15.5093 71.8887 18.6538C73.2683 20.77 75.1777 23.6592 76.4774 23.4044C77.7669 23.1495 77.9771 19.8437 78.1369 17.4216C78.3668 13.8268 78.5769 10.4274 81.346 9.88352C84.1052 9.33116 86.0547 12.3056 88.1242 15.4586C89.5137 17.566 91.4234 20.464 92.7129 20.2007C94.0024 19.9458 94.2125 16.6401 94.3625 14.2264C94.5924 10.6232 94.8025 7.2238 97.5617 6.67989C100.321 6.13597 102.281 9.11042 104.35 12.2549C105.74 14.3711 107.639 17.2688 108.929 17.0055C110.228 16.7506 110.438 13.4445 110.588 11.0227C110.818 7.42796 111.028 4.02859 113.787 3.48467C116.547 2.93231 118.506 5.90675 120.575 9.0597C121.955 11.1674 123.865 14.0652 125.154 13.8018C126.454 13.5469 126.664 10.2409 126.814 7.82756C127.044 4.22433 127.254 0.824915 130.013 0.281C130.543 0.17891 131.053 0.204618 131.522 0.348964V2.26974C131.143 2.0064 130.783 1.87897 130.463 1.93846C129.173 2.19335 128.963 5.49943 128.813 7.92119C128.583 11.516 128.363 14.9153 125.604 15.4593C122.845 16.0032 120.895 13.0372 118.826 9.88422C117.436 7.77651 115.527 4.87876 114.247 5.1421C112.947 5.39698 112.738 8.7031 112.588 11.1164C112.358 14.7196 112.148 18.119 109.388 18.6629C106.629 19.2068 104.669 16.2324 102.6 13.0879C101.221 10.9717 99.3011 8.08242 98.0215 8.33731C96.7218 8.5922 96.512 11.8983 96.362 14.32C96.1321 17.9148 95.922 21.3142 93.1628 21.8581C90.3934 22.4105 88.4439 19.4276 86.3747 16.2831C84.9951 14.1754 83.0955 11.2861 81.7959 11.541C80.4962 11.7959 80.2864 15.1016 80.1364 17.5153C79.9065 21.1185 79.6865 24.5179 76.9273 25.0618C74.1579 25.6057 72.2084 22.6312 70.1388 19.4867C68.7494 17.379 66.8396 14.4813 65.5502 14.7446C65.5502 14.7446 63.6754 14.1955 65.1541 13.2819Z" fill="white"/>
</svg>
