<svg width="950" height="797" viewBox="0 0 950 797" fill="none" xmlns="http://www.w3.org/2000/svg">
<path d="M176.409 796.254C113.684 701.227 12.9354 599.795 -34.919 512.925C-35.9767 511.012 -36.9727 509.155 -37.9687 507.243C-38.9016 505.499 -39.7727 503.755 -40.7069 502.011C-43.5701 496.273 -46.2455 490.646 -48.5478 485.02C-49.1705 483.558 -49.7921 482.094 -50.3531 480.631C-51.5357 477.818 -52.5936 475.005 -53.5267 472.248C-54.7711 468.872 -55.829 465.608 -56.7004 462.346C-57.8201 458.52 -58.7545 454.751 -59.5011 450.98C-60.4344 446.423 -61.0576 441.978 -61.4942 437.588C-62.3044 428.924 -62.0556 420.54 -60.6259 412.437C-60.6259 412.437 -60.6259 412.437 -60.6259 412.381C-60.253 410.356 -59.8171 408.33 -59.3207 406.36C-59.0713 405.348 -58.8231 404.335 -58.5119 403.322C-58.2008 402.197 -57.8278 401.071 -57.393 399.946C-56.957 398.595 -56.4606 397.245 -55.8998 395.951C-55.3403 394.489 -54.7177 393.082 -54.0334 391.675C-52.1671 387.849 -50.0525 384.135 -47.5647 380.477C-36.8652 364.721 -21.8101 353.748 -3.95523 345.868C79.5981 309.117 224.255 339.934 277.876 258.398C320.052 194.25 285.635 91.7932 222.039 0.0860626L711.622 0.0317615C774.286 95.0584 874.838 196.271 922.631 283.197C923.688 285.11 924.684 286.967 925.68 288.88C926.614 290.624 927.547 292.367 928.419 294.111C931.282 299.851 933.957 305.477 936.259 311.103C936.881 312.566 937.504 314.029 938.063 315.492C939.246 318.305 940.304 321.118 941.237 323.875C942.357 327.195 943.416 330.515 944.349 333.778C945.469 337.604 946.403 341.374 947.15 345.143C948.083 349.701 948.706 354.145 949.143 358.535C949.953 367.199 949.704 375.583 948.274 383.686C948.274 383.686 948.274 383.686 948.274 383.742C947.902 385.768 947.466 387.793 946.969 389.763C946.72 390.775 946.472 391.789 946.16 392.801C944.917 396.797 943.485 400.679 941.682 404.449C939.816 408.275 937.701 411.989 935.213 415.647C924.451 431.403 909.396 442.377 891.541 450.2C807.987 486.951 663.33 456.02 609.646 537.556C567.346 601.705 601.807 704.383 665.528 796.201L176.409 796.256L176.409 796.254Z" fill="url(#paint0_linear_236_331)"/>
<defs>
<linearGradient id="paint0_linear_236_331" x1="949.594" y1="398.09" x2="-85.5" y2="299.5" gradientUnits="userSpaceOnUse">
<stop stop-color="#FC9981"/>
<stop offset="0.9954" stop-color="#F7CAC3"/>
</linearGradient>
</defs>
</svg>
