<svg width="288" height="587" viewBox="0 0 288 587" fill="none" xmlns="http://www.w3.org/2000/svg">
<path d="M332.183 12.8125L359.965 114.61C354.381 125.032 347.761 134.695 339.535 143.327C330.418 152.936 319.826 160.555 308.097 166.721C295.1 173.523 281.341 178.081 267.146 181.519C252.173 185.125 236.968 186.955 221.74 188.72C207.704 190.35 193.58 191.939 179.594 193.916C169.095 195.448 158.627 197.479 148.225 199.486C139.357 201.2 130.518 203.196 121.699 205.148C116.231 206.375 110.723 207.798 105.303 209.263C95.6714 211.798 86.1108 214.635 76.898 218.551C66.6945 222.858 57.0766 228.196 48.9392 235.849C43.5281 240.921 38.9547 246.606 35.7934 253.39C30.1391 265.662 31.2477 277.373 38.8999 288.421C44.3381 296.323 51.7452 301.769 60.5275 305.447C68.2364 308.67 76.2814 310.278 84.6088 310.836C93.8921 311.417 103.224 311.214 112.511 310.882C125.724 310.422 138.954 309.7 152.204 309.956C176.661 310.359 200.867 313.333 224.745 318.357C232.945 320.091 241.066 322.219 248.862 325.483C260.666 330.378 270.992 337.369 279.23 347.296C285.73 355.109 289.821 364.039 292.432 373.828C295.77 386.274 297.465 399.016 299.268 411.756C300.994 423.976 302.786 436.172 305.356 448.2C307.426 458.109 310.252 467.784 313.747 477.292C319.749 493.635 327.405 509.095 337.618 523.239C341.26 528.246 345.199 532.963 349.8 537.079C351.083 538.225 352.364 539.262 353.665 540.256L331.52 586.984C310.405 586.442 289.752 580.957 269.75 570.134C254.622 561.943 241.164 551.586 229.655 538.818C221.212 529.438 215.021 518.706 211.299 506.617C209.019 499.19 207.691 491.569 206.773 483.874C205.208 471.085 204.793 458.25 203.944 445.424C203.419 436.786 202.742 428.129 201.264 419.577C195.453 386.06 177.489 361.305 147.798 344.976C138.202 339.729 128.007 335.973 117.502 332.985C108.416 330.4 99.1709 328.493 89.8862 326.782C82.1274 325.364 74.3916 324.01 66.6744 322.504C59.1973 321.058 51.7804 319.372 44.5233 317.009C36.239 314.32 28.4543 310.577 21.3793 305.449C16.3535 301.777 12.074 297.436 8.55928 292.275C2.62538 283.493 0.360966 273.654 0.341211 263.157C0.325039 257.072 1.26692 251.119 2.86212 245.26C10.7199 216.554 26.1953 192.964 50.1696 175.122C57.7837 169.48 65.8704 164.654 74.3608 160.449C85.0639 155.088 96.2002 150.738 107.592 147.209C114.994 144.963 122.489 143.083 130.006 141.159C138.257 139.046 146.556 137.171 154.874 135.143C162.652 133.236 170.431 131.437 178.207 129.421C184.816 127.712 191.4 125.831 197.896 123.908C206.463 121.353 214.939 118.539 223.232 115.317C241.154 108.321 258.218 99.7356 274.106 88.8721C305.356 67.5048 364.483 -35.6136 332.183 12.8125Z" fill="url(#paint0_linear_236_336)"/>
<defs>
<linearGradient id="paint0_linear_236_336" x1="125.311" y1="501.919" x2="359.189" y2="8.39958" gradientUnits="userSpaceOnUse">
<stop stop-color="#FC9981"/>
<stop offset="0.9954" stop-color="#F7CAC3"/>
</linearGradient>
</defs>
</svg>
