<svg width="98" height="23" viewBox="0 0 98 23" fill="none" xmlns="http://www.w3.org/2000/svg">
<path d="M6.44 16.6H14.27V22H0.71V1.3H6.44V16.6ZM30.6428 22.36C24.3728 22.36 19.6328 17.74 19.6328 11.65C19.6328 5.56 24.3728 0.939999 30.6428 0.939999C36.9128 0.939999 41.6528 5.56 41.6528 11.65C41.6528 17.74 36.9128 22.36 30.6428 22.36ZM30.6428 16.84C33.5528 16.84 35.7728 14.62 35.7728 11.65C35.7728 8.68 33.5528 6.46 30.6428 6.46C27.7328 6.46 25.5128 8.68 25.5128 11.65C25.5128 14.62 27.7328 16.84 30.6428 16.84Z" fill="black"/>
<path d="M59.2882 9.67H69.5782V11.65C69.5782 17.83 65.1682 22.36 59.0482 22.36C52.8382 22.36 48.1582 17.74 48.1582 11.65C48.1582 5.56 52.8982 0.939999 59.1682 0.939999C62.7082 0.939999 65.8582 2.38 67.6882 4.72L63.3682 8.17C62.4082 7.09 60.9382 6.4 59.2882 6.4C56.3182 6.4 54.0382 8.65 54.0382 11.65C54.0382 14.65 56.2882 16.9 59.2582 16.9C61.0582 16.9 62.5282 16.06 63.2782 14.77H59.2882V9.67ZM86.9319 22.36C80.6619 22.36 75.9219 17.74 75.9219 11.65C75.9219 5.56 80.6619 0.939999 86.9319 0.939999C93.2019 0.939999 97.9419 5.56 97.9419 11.65C97.9419 17.74 93.2019 22.36 86.9319 22.36ZM86.9319 16.84C89.8419 16.84 92.0619 14.62 92.0619 11.65C92.0619 8.68 89.8419 6.46 86.9319 6.46C84.0219 6.46 81.8019 8.68 81.8019 11.65C81.8019 14.62 84.0219 16.84 86.9319 16.84Z" fill="white"/>
</svg>
