<svg width="393" height="599" viewBox="0 0 393 599" fill="none" xmlns="http://www.w3.org/2000/svg">
<path d="M0.0674131 598.401L0.0010522 0.0854699L281.161 0.0542857L281.161 0.0123545L336.102 0.00626081C383.897 68.9285 409.763 145.93 378.066 194.14C377.178 195.494 376.243 196.805 375.308 198.073C375.168 198.284 374.981 198.495 374.84 198.707C373.906 199.934 372.923 201.075 371.942 202.217C370.867 203.486 369.745 204.67 368.576 205.854C367.454 207.038 366.238 208.18 365.023 209.279C363.387 210.717 361.703 212.113 359.973 213.425C359.085 214.102 358.196 214.736 357.308 215.37C356.419 216.004 355.532 216.597 354.596 217.189C353.661 217.823 352.725 218.416 351.79 218.965C349.92 220.064 347.956 221.165 345.992 222.18C344.729 222.814 343.42 223.449 342.111 224.083C341.41 224.422 340.662 224.718 339.914 225.057C338.885 225.522 337.856 225.987 336.781 226.411C335.752 226.833 334.677 227.256 333.602 227.637C332.573 228.017 331.498 228.398 330.47 228.779C330.377 228.821 330.329 228.864 330.236 228.864C328.084 229.625 325.934 230.345 323.736 230.979C321.492 231.698 319.201 232.333 316.91 232.925C315.741 233.222 314.572 233.518 313.404 233.771C312.235 234.068 311.066 234.322 309.897 234.575C308.728 234.872 307.512 235.126 306.343 235.379C305.501 235.548 304.613 235.718 303.771 235.887C303.443 235.972 303.069 236.056 302.742 236.098C296.711 237.283 290.585 238.299 284.319 239.145C282.449 239.399 280.578 239.654 278.708 239.907C259.912 242.362 240.507 243.929 221.991 246.341C220.167 246.595 218.297 246.849 216.473 247.103C211.002 247.907 205.625 248.796 200.342 249.811C193.328 251.207 186.548 252.815 180.142 254.803C178.505 255.31 176.915 255.818 175.372 256.367C173.801 256.911 172.278 257.455 170.798 258.04C170.706 258.075 170.619 258.115 170.527 258.149C169.062 258.717 167.634 259.317 166.254 259.92C165.225 260.386 164.197 260.851 163.168 261.358C162.139 261.866 161.111 262.374 160.129 262.881C159.148 263.346 158.166 263.896 157.183 264.488C156.435 264.911 155.734 265.334 154.986 265.8C154.752 265.883 154.565 266.011 154.331 266.18C154.237 266.222 154.145 266.265 154.003 266.392C153.162 266.899 152.367 267.449 151.572 267.999C151.572 267.999 151.572 267.957 151.526 267.999C150.591 268.633 149.608 269.352 148.673 270.072C147.879 270.664 147.084 271.256 146.336 271.933C145.495 272.61 144.653 273.328 143.858 274.047C142.783 275.02 141.754 275.993 140.772 277.008C140.164 277.6 139.603 278.192 139.089 278.784C138.481 279.418 137.873 280.094 137.406 280.771C136.985 281.195 136.611 281.617 136.33 282.04C135.302 283.267 134.367 284.578 133.479 285.889C131.609 288.637 130.019 291.429 128.617 294.305C128.103 295.362 127.635 296.419 127.214 297.518C126.794 298.491 126.42 299.506 126.093 300.52C125.766 301.366 125.485 302.212 125.252 303.058C125.018 303.819 124.832 304.58 124.644 305.341L124.644 305.383C124.598 305.468 124.598 305.595 124.598 305.68C124.224 307.033 123.944 308.471 123.663 309.866C123.663 309.908 123.663 309.908 123.663 309.908C122.589 315.998 122.402 322.298 123.011 328.811L123.011 328.98C123.105 330.249 123.245 331.517 123.479 332.786C123.76 334.688 124.041 336.634 124.461 338.621C124.461 338.706 124.508 338.79 124.508 338.875C125.069 341.708 125.771 344.541 126.613 347.417C127.268 349.87 128.063 352.322 128.998 354.859C129.699 356.931 130.495 359.045 131.383 361.16C131.804 362.259 132.272 363.359 132.739 364.458C134.469 368.686 136.481 372.915 138.632 377.228C139.333 378.539 139.988 379.849 140.69 381.16C141.438 382.555 142.139 383.951 142.934 385.346C142.934 385.388 142.981 385.388 142.981 385.431C144.103 387.461 145.273 389.491 146.488 391.562C147.657 393.634 148.873 395.664 150.182 397.778C152.194 401.119 154.298 404.416 156.543 407.799C157.525 409.321 158.507 410.843 159.536 412.366C162.669 417.059 165.943 421.795 169.357 426.573C170.386 428.01 171.415 429.448 172.49 430.886C189.467 454.311 209.248 478.581 229.169 503.064C238.382 514.395 247.595 525.769 256.668 537.144C256.714 537.144 256.668 537.185 256.668 537.185C260.269 541.752 263.869 546.276 267.376 550.801C272.708 557.608 277.852 564.459 282.809 571.224C286.13 575.748 289.357 580.23 292.537 584.712C295.716 589.194 298.871 593.887 301.817 598.369L0.0674133 598.403L0.0674131 598.401Z" fill="url(#paint0_linear_236_105)"/>
<defs>
<linearGradient id="paint0_linear_236_105" x1="392.029" y1="299.182" x2="0.0342221" y2="299.225" gradientUnits="userSpaceOnUse">
<stop stop-color="#FC9981"/>
<stop offset="0.9954" stop-color="#F7CAC3"/>
</linearGradient>
</defs>
</svg>
