<svg width="1295" height="88" viewBox="0 0 1295 88" fill="none" xmlns="http://www.w3.org/2000/svg">
<path d="M1293 30.0048C1254.43 15.3636 1165.51 -9.52657 1118.42 8.04293C1059.56 30.0048 1029.28 35.9942 1008.76 45.4777C988.246 54.9613 933.754 69.4362 857.733 62.9474C781.713 56.4587 715.111 34.9959 676.428 27.0098C637.745 19.0237 567.107 3.55053 529.097 6.54533C491.086 9.54013 424.148 18.0254 382.438 34.4968C340.728 50.9682 286.235 68.4379 257.644 73.4292C229.052 78.4206 191.378 85.4084 174.223 85.4084C157.068 85.4084 109.303 88.4032 79.3658 80.9162C49.4286 73.4292 22.1824 66.9405 13.1003 63.4466C5.83462 60.6514 2.67271 59.2871 1.99996 58.9544" stroke="#FFBAAE" stroke-width="3" stroke-linecap="round" stroke-dasharray="6 6"/>
</svg>
